<mxfile host="app.diagrams.net" agent="Mozilla/5.0 (X11; Linux x86_64; rv:134.0) Gecko/20100101 Firefox/134.0" version="26.0.10">
  <diagram name="Page-1" id="tRxRmt2ETjXUGTE65K-1">
    <mxGraphModel dx="617" dy="791" grid="1" gridSize="10" guides="1" tooltips="1" connect="1" arrows="1" fold="1" page="1" pageScale="1" pageWidth="1169" pageHeight="827" math="0" shadow="0">
      <root>
        <mxCell id="0" />
        <mxCell id="1" parent="0" />
        <mxCell id="aE42o84WyTxCgmJnUOky-2" style="edgeStyle=orthogonalEdgeStyle;rounded=0;orthogonalLoop=1;jettySize=auto;html=1;entryX=0.5;entryY=0;entryDx=0;entryDy=0;" edge="1" parent="1" source="Z6zPmBP4En6_AxTL36F_-1" target="aE42o84WyTxCgmJnUOky-1">
          <mxGeometry relative="1" as="geometry" />
        </mxCell>
        <mxCell id="aE42o84WyTxCgmJnUOky-4" style="edgeStyle=orthogonalEdgeStyle;rounded=0;orthogonalLoop=1;jettySize=auto;html=1;entryX=1;entryY=0.5;entryDx=0;entryDy=0;" edge="1" parent="1" source="Z6zPmBP4En6_AxTL36F_-1" target="aE42o84WyTxCgmJnUOky-3">
          <mxGeometry relative="1" as="geometry" />
        </mxCell>
        <mxCell id="aE42o84WyTxCgmJnUOky-6" style="edgeStyle=orthogonalEdgeStyle;rounded=0;orthogonalLoop=1;jettySize=auto;html=1;entryX=0.5;entryY=1;entryDx=0;entryDy=0;" edge="1" parent="1" source="Z6zPmBP4En6_AxTL36F_-1" target="aE42o84WyTxCgmJnUOky-5">
          <mxGeometry relative="1" as="geometry" />
        </mxCell>
        <mxCell id="aE42o84WyTxCgmJnUOky-8" style="edgeStyle=orthogonalEdgeStyle;rounded=0;orthogonalLoop=1;jettySize=auto;html=1;entryX=0;entryY=0.5;entryDx=0;entryDy=0;" edge="1" parent="1" source="Z6zPmBP4En6_AxTL36F_-1" target="aE42o84WyTxCgmJnUOky-7">
          <mxGeometry relative="1" as="geometry" />
        </mxCell>
        <mxCell id="aE42o84WyTxCgmJnUOky-10" style="edgeStyle=orthogonalEdgeStyle;rounded=0;orthogonalLoop=1;jettySize=auto;html=1;entryX=0;entryY=0.5;entryDx=0;entryDy=0;" edge="1" parent="1" source="Z6zPmBP4En6_AxTL36F_-1" target="aE42o84WyTxCgmJnUOky-9">
          <mxGeometry relative="1" as="geometry" />
        </mxCell>
        <mxCell id="Z6zPmBP4En6_AxTL36F_-1" value="Solent Alumni" style="rounded=0;whiteSpace=wrap;html=1;fillColor=#0050ef;fontColor=#ffffff;strokeColor=#001DBC;" parent="1" vertex="1">
          <mxGeometry x="550" y="354" width="120" height="60" as="geometry" />
        </mxCell>
        <mxCell id="aE42o84WyTxCgmJnUOky-1" value="accessibilty" style="rounded=0;whiteSpace=wrap;html=1;fillColor=#60a917;fontColor=#ffffff;strokeColor=#2D7600;" vertex="1" parent="1">
          <mxGeometry x="550" y="480" width="120" height="60" as="geometry" />
        </mxCell>
        <mxCell id="aE42o84WyTxCgmJnUOky-13" style="edgeStyle=orthogonalEdgeStyle;rounded=0;orthogonalLoop=1;jettySize=auto;html=1;entryX=1;entryY=0.5;entryDx=0;entryDy=0;" edge="1" parent="1" source="aE42o84WyTxCgmJnUOky-3" target="aE42o84WyTxCgmJnUOky-11">
          <mxGeometry relative="1" as="geometry" />
        </mxCell>
        <mxCell id="aE42o84WyTxCgmJnUOky-14" style="edgeStyle=orthogonalEdgeStyle;rounded=0;orthogonalLoop=1;jettySize=auto;html=1;entryX=1;entryY=0.5;entryDx=0;entryDy=0;" edge="1" parent="1" source="aE42o84WyTxCgmJnUOky-3" target="aE42o84WyTxCgmJnUOky-12">
          <mxGeometry relative="1" as="geometry" />
        </mxCell>
        <mxCell id="aE42o84WyTxCgmJnUOky-3" value="target audience" style="rounded=0;whiteSpace=wrap;html=1;fillColor=#6a00ff;fontColor=#ffffff;strokeColor=#3700CC;" vertex="1" parent="1">
          <mxGeometry x="370" y="354" width="120" height="60" as="geometry" />
        </mxCell>
        <mxCell id="aE42o84WyTxCgmJnUOky-20" style="edgeStyle=orthogonalEdgeStyle;rounded=0;orthogonalLoop=1;jettySize=auto;html=1;entryX=0.5;entryY=1;entryDx=0;entryDy=0;" edge="1" parent="1" source="aE42o84WyTxCgmJnUOky-5" target="aE42o84WyTxCgmJnUOky-19">
          <mxGeometry relative="1" as="geometry" />
        </mxCell>
        <mxCell id="aE42o84WyTxCgmJnUOky-23" style="edgeStyle=orthogonalEdgeStyle;rounded=0;orthogonalLoop=1;jettySize=auto;html=1;entryX=0.5;entryY=1;entryDx=0;entryDy=0;" edge="1" parent="1" source="aE42o84WyTxCgmJnUOky-5" target="aE42o84WyTxCgmJnUOky-22">
          <mxGeometry relative="1" as="geometry" />
        </mxCell>
        <mxCell id="aE42o84WyTxCgmJnUOky-5" value="possible pain points" style="rounded=0;whiteSpace=wrap;html=1;fillColor=#a0522d;fontColor=#ffffff;strokeColor=#6D1F00;" vertex="1" parent="1">
          <mxGeometry x="550" y="234" width="120" height="60" as="geometry" />
        </mxCell>
        <mxCell id="aE42o84WyTxCgmJnUOky-7" value="possible research points" style="rounded=0;whiteSpace=wrap;html=1;fillColor=#76608a;fontColor=#ffffff;strokeColor=#432D57;" vertex="1" parent="1">
          <mxGeometry x="730" y="294" width="120" height="60" as="geometry" />
        </mxCell>
        <mxCell id="aE42o84WyTxCgmJnUOky-9" value="business goals" style="rounded=0;whiteSpace=wrap;html=1;fillColor=#6a00ff;strokeColor=#3700CC;fontColor=#ffffff;" vertex="1" parent="1">
          <mxGeometry x="730" y="410" width="120" height="60" as="geometry" />
        </mxCell>
        <mxCell id="aE42o84WyTxCgmJnUOky-16" style="edgeStyle=orthogonalEdgeStyle;rounded=0;orthogonalLoop=1;jettySize=auto;html=1;entryX=1;entryY=0.5;entryDx=0;entryDy=0;" edge="1" parent="1" source="aE42o84WyTxCgmJnUOky-11" target="aE42o84WyTxCgmJnUOky-15">
          <mxGeometry relative="1" as="geometry" />
        </mxCell>
        <mxCell id="aE42o84WyTxCgmJnUOky-11" value="Existing Alums" style="rounded=0;whiteSpace=wrap;html=1;fillColor=#6a00ff;fontColor=#ffffff;strokeColor=#3700CC;" vertex="1" parent="1">
          <mxGeometry x="180" y="300" width="120" height="60" as="geometry" />
        </mxCell>
        <mxCell id="aE42o84WyTxCgmJnUOky-18" style="edgeStyle=orthogonalEdgeStyle;rounded=0;orthogonalLoop=1;jettySize=auto;html=1;" edge="1" parent="1" source="aE42o84WyTxCgmJnUOky-12" target="aE42o84WyTxCgmJnUOky-17">
          <mxGeometry relative="1" as="geometry" />
        </mxCell>
        <mxCell id="aE42o84WyTxCgmJnUOky-12" value="Potential applicants" style="rounded=0;whiteSpace=wrap;html=1;fillColor=#6a00ff;fontColor=#ffffff;strokeColor=#3700CC;" vertex="1" parent="1">
          <mxGeometry x="180" y="420" width="120" height="60" as="geometry" />
        </mxCell>
        <mxCell id="aE42o84WyTxCgmJnUOky-15" value="Might be more likey to find support section helpful" style="rounded=0;whiteSpace=wrap;html=1;fillColor=#6a00ff;fontColor=#ffffff;strokeColor=#3700CC;" vertex="1" parent="1">
          <mxGeometry x="20" y="300" width="120" height="60" as="geometry" />
        </mxCell>
        <mxCell id="aE42o84WyTxCgmJnUOky-17" value="could me more interested in benefits" style="rounded=0;whiteSpace=wrap;html=1;fillColor=#6a00ff;fontColor=#ffffff;strokeColor=#3700CC;" vertex="1" parent="1">
          <mxGeometry x="20" y="420" width="120" height="60" as="geometry" />
        </mxCell>
        <mxCell id="aE42o84WyTxCgmJnUOky-19" value="links to irrelevant webpages" style="rounded=0;whiteSpace=wrap;html=1;fillColor=#a0522d;fontColor=#ffffff;strokeColor=#6D1F00;" vertex="1" parent="1">
          <mxGeometry x="290" y="140" width="120" height="60" as="geometry" />
        </mxCell>
        <mxCell id="aE42o84WyTxCgmJnUOky-22" value="Reader mode does not work properly " style="rounded=0;whiteSpace=wrap;html=1;fillColor=#a0522d;fontColor=#ffffff;strokeColor=#6D1F00;" vertex="1" parent="1">
          <mxGeometry x="390" y="50" width="120" height="60" as="geometry" />
        </mxCell>
        <mxCell id="aE42o84WyTxCgmJnUOky-24" value="Links to " style="rounded=0;whiteSpace=wrap;html=1;" vertex="1" parent="1">
          <mxGeometry x="530" y="70" width="120" height="60" as="geometry" />
        </mxCell>
      </root>
    </mxGraphModel>
  </diagram>
</mxfile>
